<?xml version="1.0" encoding="UTF-8"?>
<svg id="Layer_2" data-name="Layer 2" xmlns="http://www.w3.org/2000/svg" viewBox="0 0 836.08 256.67">
  <defs>
    <style>
      .cls-1 {
        isolation: isolate;
      }

      .cls-2 {
        fill: #ffa90c;
      }

      .cls-3 {
        fill: #1ec5bb;
      }
    </style>
  </defs>
  <g id="Layer_1-2" data-name="Layer 1">
    <g>
      <g id="uuid-fdfc732b-213c-4665-9048-79c3b1f4f374" data-name="Layer 1-2">
        <path class="cls-3" d="M136.85,217.01c1.34-1.21,1.99-3,1.74-4.78-.07-.61-.15-.71-.73-.57-.89.21-1.72.61-2.43,1.18-3.35,2.54-5.33,6.49-5.37,10.7-.14,4.77,2.19,8.36,6.08,11,2.72,1.92,6.12,2.6,9.37,1.87,6.37-1.16,10.95-6.78,10.79-13.26.23-3.93-2.93-8.68-5.56-10.45-.54-.38-1.14-.66-1.78-.81-.62-.13-.78,0-.93.58s-.25,1.28-.42,1.9c-.16.49-.02,1.02.36,1.37.77.82,1.55,1.64,2.24,2.53,1.35,1.51,1.95,3.54,1.66,5.54-.44,2.93-2.23,5.47-4.84,6.87-2.67,1.61-6.03,1.53-8.63-.2-4.12-2.68-5.89-9.23-1.55-13.47Z"/>
        <path class="cls-3" d="M203.45,229.57c-.88-5.11-1.71-10.24-2.54-15.37-.71-4.38-1.41-8.76-2.09-13.14-.39-2.5-.76-5-1.15-7.49-.12-.76-.14-.8-.83-.84h-35.74c-1.86,0-3.72-.11-5.58-.29-1.63-.16-3.27-.24-4.91-.29-1.48-.1-2.82.91-3.13,2.36-.13.71-.13,1.43,0,2.14.13,2.6.27,5.19.42,7.79.08,1.34.54,1.81,1.89,1.83.58.01,1.16.16,1.67.44,2.51,1.35,4.71,3.19,6.48,5.42,2.83,3.59,4.22,8.11,3.9,12.67-.15,2.46-.85,4.86-2.07,7-3.15,6.05-9.32,9.93-16.14,10.14-2.09.05-4.16-.31-6.11-1.07-9.37-3.16-14.7-11.69-12.34-21.94,1-4.16,3.55-7.33,6.72-10.07,1.46-1.25,3.16-2.19,5-2.75,1.52-.46,1.75-.74,1.76-2.3v-10.73c0-.37-.18-.51-.54-.5h-.76c-3.62.05-7.23.14-10.85.14h-25.09c-.99.03-1.97-.01-2.95-.14-.79-.13-1.6-.1-2.39.06-.27.07-.55.1-.83.11-1.31,0-1.92-.35-1.95-1.4-.03-.54,0-1.09.09-1.62.96-4.67,1.93-9.36,2.92-14.09,1.41-6.78,2.9-13.55,4.25-20.35,1.5-7.53,3.12-15,4.72-22.56.85-4,1.78-8,2.34-12,.29-2.66.87-5.27,1.71-7.81.81-2.39,1.4-4.85,1.78-7.35.3-1.76.42-3.54.86-5.27.29-.64.49-1.31.59-2,.55-1.94,1.01-3.91,1.36-5.9,1.14-5.62,2.17-11.26,3.39-16.87,1.92-8.77,3.85-17.54,5.73-26.32.48-1.7.77-3.44.87-5.2.05-1.43-.6-2.79-1.73-3.66-1.06-.87-2.18-1.65-3.36-2.34-1.15-.68-2.36-1.27-3.61-1.75-3.01-1.03-6.15-1.6-9.33-1.7-1.6-.06-3.2,0-4.79.17-11.43.92-22.25,8.72-26.48,19-.6,1.47-1.07,2.99-1.38,4.54-1.71,6.24,2.85,13-1.26,18.89-1.82,2.26-5-1.36-5.93-.9-7.77,4.06-3.2,16.25.45,23,1.37,2.25,5.94,0,7.42,3.55.2.92.27,1.86.2,2.79-.08,1.15-.04,2.31.1,3.46.13,2.24.65,4.44,1.52,6.51,1.7,4,1.81,8.21,1.61,12.45-.03.65-.11,1.29-.24,1.93-.41,1.67-1.46,3.11-2.92,4-3.97,2.71-8.14,5.11-12.48,7.18-1.54.74-3.06,1.53-4.62,2.24-1.13.47-1.87,1.58-1.88,2.8-.22,2.85-.07,5.7-.14,8.55-.12,1.26.55,2.46,1.69,3,1.05.51,2.06,1.11,3,1.8,4.64,3.6,8.6,8,11.68,13,4.75,7.88,8.59,16.26,11.47,25,1.68,4.93,2.49,10.12,2.37,15.33-.03,5.51-2.83,10.64-7.44,13.66-4.02,2.81-8.97,3.98-13.82,3.27-1.33-.19-2.39-1.22-2.61-2.55-.1-.79-.14-1.58-.25-2.37-.27-1.75-.16-3.53-.33-5.29-.12-.97-.07-1.95.14-2.91.36-1.79,2-3.04,3.83-2.9.84.05,1.66.25,2.43.59,2.14.82,4.35,1.47,6.59,1.94.36.08.72.11,1.09.1.91.1,1.72-.56,1.81-1.47.02-.2,0-.4-.04-.59-.2-1.82-.39-3.65-.6-5.48-.27-2.84-.81-5.65-1.62-8.38-1.62-4.76-3.54-9.41-5.76-13.92-1.71-3.8-3.73-7.44-6.05-10.9-1.47-2.21-3.16-4.26-5.06-6.11-2.46-2.56-6.08-3.62-9.53-2.8-2.43.62-4.54,2.15-5.88,4.27-1.32,1.91-2.63,3.82-3.89,5.77-3.29,4.95-5.95,10.28-7.94,15.88-1.14,3.31-1.82,6.76-2.9,10.09-.35,1.06-.64,2.15-.88,3.24-.74,3.36-.74,6.8-1.06,10.21-.04.17.06.33.22.38,0,0,0,0,0,0,2.36-.67,4.77-1.36,7.19-2,1.22-.39,2.48-.63,3.75-.74,1.42-.11,2.75.69,3.32,2,.28.58.43,1.22.42,1.86v7.52c.21,1.99-1.01,3.86-2.91,4.48-.17.22-.42.18-.65.17h-1.51c-.3,0-.62.09-.88-.15l-.65-.07c-1.77-.44-3.54-.85-5.29-1.31-1.91-.36-3.72-1.08-5.36-2.12-3.04-2.09-5.32-5.11-6.5-8.61-.89-2.91-1.2-5.97-.91-9,.32-4.32,1.2-8.59,2.6-12.69,1.23-3.59,2.76-7.07,4.3-10.53,2.69-6.06,5.97-11.84,9.79-17.26,2.74-4.15,6.54-7.5,11-9.7.91-.47,1.72-1.11,2.4-1.87.36-.36.59-.83.64-1.34.23-1.84,0-3.7-.65-5.43-.29-.74-.35-.74-1.13-.56-2.29.52-4.49,1.37-6.54,2.51-1.95,1.08-4.01,1.93-6.15,2.54-1.99.6-3.91,1.43-5.71,2.47-1.19.68-2.44,1.25-3.73,1.72-1.84.61-3.15,2.26-3.32,4.19-.74,4.41-1.59,8.81-2.5,13.18-1.31,6.36-2.72,12.7-4.08,19-1,4.51-1.77,9.06-2.82,13.56-.88,3.76-1.82,7.5-2.51,11.3-.53,2.91-1,5.84-1.56,8.74-1.57,7.74-3.4,15.42-5.23,23.11-.3,1.02-.48,2.07-.54,3.13-.11.92.54,1.75,1.45,1.87.5.1,1.01.13,1.52.09h196.11c.87.08,1.75.02,2.6-.17.67.07,1.34.05,2-.07.15.05.32-.02.4-.16.84-.26,1.37-1.07,1.28-1.94.08-.21.12-.43.09-.65.37-1.39.6-2.82.66-4.26.05-2.09-.18-4.18-.67-6.22-.86-4.51-1.23-9.08-2-13.6Z"/>
        <path class="cls-3" d="M23.48,147.74c.17-.06.33-.14.5-.21l13.91-5.81c2.69-1.12,5.38-2.26,8-3.61,1.74-.83,3.18-2.18,4.12-3.86.27-.47.57-.93.9-1.36,2.78-4.17,6.64-7.5,11.16-9.65,1.44-.63,2.92-1.15,4.43-1.56,1.69-.48,2-1.2,1.29-2.81-.03-.07-.06-.13-.09-.19-1.41-2.46-2-5.31-1.69-8.13.11-.63-.22-1.27-.8-1.54l-1.71-1c-1.28-.7-2.41-1.64-3.33-2.77-1.23-1.6-2.29-3.33-3.16-5.15-2.57-5.76-3.77-12.04-3.5-18.34.01-1.26.18-2.52.5-3.74,1-3.62,3.77-6.78,4.18-10.53.24-1.66.24-3.34,0-5-.09-.68-.09-1.37,0-2.05.2-1.54.37-3.08.57-4.62.24-2.55.77-5.06,1.6-7.49,1.79-4.83,4.2-9.4,7.17-13.6,3.21-4.59,7.11-8.66,11.56-12.06,6.13-4.7,13.41-7.69,21.08-8.65,2.29-.27,4.6-.27,6.89,0,2.64.38,5.21,1.12,7.65,2.18,3,1.19,5.88,2.56,8.76,4,1.24.68,2.6,1.13,4,1.31,1.13.09,1.16.06,1.38-1l4-19.06c.3-1.44.31-1.44-1.11-1.44H54.23c-1,0-1.44.41-1.55,1.34-.36,2.8-1.14,5.51-1.72,8.26-1.2,5.65-2.52,11.27-3.61,16.94-1,5.17-2,10.34-3,15.51-.94,4.89-2,9.74-3.11,14.6-1.68,7.63-3.23,15.23-4.74,22.83-.42,1.68-.76,3.38-1,5.1-.08.2-.14.4-.2.61-1.7,8.19-3.28,16.41-5.14,24.57-2.64,11.53-4.9,23.14-7.1,34.76-.16.85-.35,1.7-.46,2.55-.06.64.27.87.88.67Z"/>
        <path class="cls-3" d="M217.33,192.51c-3.11-.21-6.22.42-9.33,0-1.55,0-2.11.66-1.79,2.19.14.63.31,1.24.52,1.85.92,2.73,1.69,5.5,2.3,8.31.74,3.51,1.49,7,2.48,10.48.07.24.14.48.22.72s.24.25.44.24c.19.02.36-.11.4-.29.04-.17.08-.35.1-.53.94-4.63,1.88-9.26,2.81-13.89.62-3.01,1.24-6.04,1.85-9.08Z"/>
      </g>
      <g class="cls-1">
        <g class="cls-1">
          <g>
            <path class="cls-3" d="M262.68,170.38c-3.16-.65-6.34-1.41-9.47-2.24V53.75h-19.42v125.42h69.52l2.45-13.71-34.63,5.94c-2.34,0-5.18-.34-8.45-1.02Z"/>
            <path class="cls-3" d="M398.04,58.51c-8.56-4.65-18.25-7.01-28.81-7.01-5.77,0-11.84.73-18.06,2.17-6.22,1.45-12.33,3.8-18.17,7-5.84,3.21-11.2,7.48-15.92,12.7-4.72,5.23-8.52,11.77-11.28,19.43-2.76,7.66-4.16,16.76-4.16,27.04,0,13.18,2.55,24.49,7.58,33.6,5.03,9.12,11.93,16.15,20.49,20.87,8.55,4.72,18.18,7.11,28.62,7.11,5.77,0,11.84-.73,18.06-2.17,6.22-1.44,12.33-3.83,18.17-7.1,5.84-3.27,11.23-7.6,16.01-12.88,4.78-5.29,8.61-11.86,11.38-19.52,2.76-7.66,4.16-16.76,4.16-27.04,0-13.18-2.55-24.45-7.58-33.51-5.04-9.06-11.93-16.02-20.5-20.68ZM405.19,117.02c0,6.07-.79,12.55-2.34,19.25-1.55,6.69-4,12.97-7.28,18.66-3.27,5.67-7.58,10.36-12.82,13.93-5.22,3.56-11.6,5.36-18.98,5.36s-13.79-1.53-19.01-4.54c-5.23-3.01-9.5-7.22-12.7-12.51-3.21-5.31-5.63-11.49-7.18-18.36-1.55-6.88-2.34-14.21-2.34-21.79,0-8.17,1.32-16.15,3.92-23.71,2.6-7.54,6.67-14.31,12.11-20.12,5.41-5.78,12.33-10.15,20.58-13,8.74,0,16.13,1.51,21.96,4.46,5.85,2.96,10.59,7.07,14.1,12.24,3.52,5.18,6.08,11.29,7.63,18.15,1.55,6.89,2.34,14.28,2.34,21.97Z"/>
            <polygon class="cls-3" points="543.31 53.75 502.09 147.94 459.14 54.04 459.01 53.75 440.74 53.75 433.76 178.64 433.73 179.17 443 179.17 448.07 76.65 494.32 178.87 494.45 179.17 497.73 179.17 545.04 72.33 550.11 179.17 570.29 179.17 563.28 53.75 543.31 53.75"/>
            <rect class="cls-3" x="589.18" y="53.75" width="18.29" height="125.42"/>
            <path class="cls-3" d="M779.96,51.04l-.13-.3h-3.47l-53.49,122.11-44.78-61.08,46.84-58.02h-12.76l-38.8,51.29-30.96-51.29h-24.73l45.07,64.57-47.39,60.84h12.74l39.56-54.49,34.94,54.26.15.23h28.61l13.91-33.83h55.15l13.97,33.52.13.31h21.58l-56.12-128.12ZM796.98,137.2h-48.5l24.43-59.08,24.07,59.08Z"/>
          </g>
        </g>
      </g>
      <g>
        <path class="cls-2" d="M256.92,233.73c-1.65-1.2-3.4-2.32-5.2-3.34-1.76-.99-3.45-2.03-5.04-3.08-1.52-1.01-2.76-2.12-3.7-3.31-.87-1.11-1.29-2.36-1.29-3.81,0-.97.21-1.86.61-2.66.35-.69.98-1.27,1.89-1.74,2.29.02,4.57.36,6.79,1,2.34.68,4.74,1.54,7.13,2.57l1.21.52.95-6.45-.83-.26c-1.5-.47-3.3-.93-5.33-1.35-2.08-.43-4.03-.65-5.82-.65-3.31,0-6.05.6-8.13,1.77-2.09,1.18-3.64,2.68-4.61,4.46-.96,1.76-1.45,3.57-1.45,5.37,0,2.17.55,4.09,1.62,5.7,1.03,1.55,2.38,2.91,4.01,4.05,1.56,1.09,3.25,2.11,4.99,3.03,1.7.89,3.32,1.82,4.81,2.76,1.43.9,2.61,1.91,3.51,3,.82,1,1.22,2.17,1.22,3.58,0,2.36-.72,4.11-2.2,5.37-1.51,1.28-3.54,1.93-6.05,1.93-1.29,0-2.65-.18-4.03-.54-1.42-.36-2.73-.8-3.88-1.3-1.21-.52-2.16-.94-2.87-1.28l-1.45-.68v5.27l.66.25c1.24.47,3.01,1.01,5.24,1.61,2.28.61,4.73.92,7.29.92,3.45,0,6.38-.55,8.69-1.64,2.36-1.11,4.16-2.66,5.35-4.61,1.19-1.94,1.79-4.12,1.79-6.48,0-2.17-.57-4.11-1.69-5.74-1.07-1.56-2.47-2.98-4.18-4.22Z"/>
        <path class="cls-2" d="M311.9,210.91l-19.61,44.76h5.64l4.66-11.34h17.36l4.73,11.34h9.1l-19.61-44.76h-2.27ZM318.11,239.9h-13.73l6.92-16.72,6.81,16.72Z"/>
        <polygon class="cls-2" points="380.32 244.26 367.19 211.92 358.08 211.92 377.69 256.67 380.06 256.67 397.49 211.92 392.14 211.92 380.32 244.26"/>
        <path class="cls-2" d="M437.16,235h13.99v-4.43h-13.99v-13.52c.91-.23,1.77-.42,2.57-.57.96-.17,2.01-.26,3.14-.27l12.66,2.11.96-6.41h-27.47v43.75h26.91l.95-6.38-19.72,1.97v-16.26Z"/>
        <path class="cls-2" d="M549.66,210.91l-19.61,44.76h5.64l4.66-11.34h17.36l4.73,11.34h9.1l-19.61-44.76h-2.27ZM555.87,239.9h-13.73l6.92-16.72,6.81,16.72Z"/>
        <path class="cls-2" d="M657.18,251.04c-.83-.17-1.67-.36-2.5-.58v-38.54h-8.21v43.75h24.87l1.16-6.49-12.74,2.18c-.71,0-1.58-.12-2.58-.33Z"/>
        <rect class="cls-2" x="704.89" y="211.92" width="7.83" height="43.75"/>
        <path class="cls-2" d="M749.76,255.67h8.14v-20.67h13.36v-4.43h-13.36v-13.52c.91-.23,1.77-.42,2.57-.57.96-.17,2.04-.26,3.2-.27l12.76,2.14v-6.44h-26.67v43.75Z"/>
        <path class="cls-2" d="M815.94,251.26v-16.26h13.99v-4.43h-13.99v-13.52c.91-.23,1.77-.42,2.57-.57.96-.17,2.02-.26,3.14-.27l12.66,2.11.96-6.41h-27.46v43.75h26.91l.95-6.38-19.72,1.97Z"/>
      </g>
    </g>
  </g>
</svg>